<svg width="24" height="24" viewBox="0 0 24 24" fill="none" xmlns="http://www.w3.org/2000/svg">
<g id="Bag">
<g id="Group">
<path id="Vector" d="M5.70016 9.55897C5.7161 9.36036 5.80627 9.17504 5.95269 9.03992C6.09912 8.9048 6.29107 8.82979 6.49032 8.82983H17.5097C17.709 8.82979 17.9009 8.9048 18.0473 9.03992C18.1938 9.17504 18.2839 9.36036 18.2999 9.55897L18.9949 18.2134C19.0124 18.4315 18.9846 18.6509 18.9132 18.8577C18.8417 19.0645 18.7283 19.2543 18.5799 19.4151C18.4315 19.5759 18.2514 19.7043 18.051 19.7921C17.8506 19.8799 17.6342 19.9252 17.4154 19.9253H6.58463C6.36583 19.9252 6.14941 19.8799 5.949 19.7921C5.74859 19.7043 5.56853 19.5759 5.42016 19.4151C5.27178 19.2543 5.15831 19.0645 5.08688 18.8577C5.01545 18.6509 4.98761 18.4315 5.00511 18.2134L5.69937 9.55897H5.70016Z" stroke="#ECECEC" stroke-width="1.35" stroke-linecap="round" stroke-linejoin="round"/>
<path id="Vector_2" d="M15.1701 11.2075V7.24478C15.1701 6.40401 14.8361 5.59767 14.2416 5.00316C13.6471 4.40864 12.8408 4.07465 12 4.07465C11.1592 4.07465 10.3529 4.40864 9.75836 5.00316C9.16384 5.59767 8.82985 6.40401 8.82985 7.24478V11.2075" stroke="#ECECEC" stroke-width="1.35" stroke-linecap="round" stroke-linejoin="round"/>
</g>
</g>
</svg>
